<?xml version="1.0" encoding="UTF-8" standalone="no"?>
<!-- Created with Inkscape (http://www.inkscape.org/) -->

<svg
   width="24mm"
   height="24mm"
   viewBox="0 0 24 24"
   version="1.1"
   id="svg5"
   inkscape:version="1.1 (c4e8f9ed74, 2021-05-24)"
   sodipodi:docname="klingon.svg"
   xmlns:inkscape="http://www.inkscape.org/namespaces/inkscape"
   xmlns:sodipodi="http://sodipodi.sourceforge.net/DTD/sodipodi-0.dtd"
   xmlns="http://www.w3.org/2000/svg"
   xmlns:svg="http://www.w3.org/2000/svg">
  <sodipodi:namedview
     id="namedview7"
     pagecolor="#505050"
     bordercolor="#ffffff"
     borderopacity="1"
     inkscape:pageshadow="0"
     inkscape:pageopacity="0"
     inkscape:pagecheckerboard="1"
     inkscape:document-units="mm"
     showgrid="false"
     inkscape:zoom="6.1148148"
     inkscape:cx="-25.757117"
     inkscape:cy="41.865536"
     inkscape:window-width="2529"
     inkscape:window-height="1044"
     inkscape:window-x="31"
     inkscape:window-y="0"
     inkscape:window-maximized="1"
     inkscape:current-layer="layer1"
     inkscape:snap-nodes="true"
     inkscape:showpageshadow="true"
     units="mm"
     fit-margin-top="0"
     fit-margin-left="0"
     fit-margin-right="0"
     fit-margin-bottom="0" />
  <defs
     id="defs2" />
  <g
     inkscape:label="Layer 1"
     inkscape:groupmode="layer"
     id="layer1"
     transform="translate(-41.085514,-79.740982)">
    <path
       style="fill:#000000;stroke-width:0.0152872"
       d="m 52.919235,103.51595 c -0.487664,-0.65933 -1.065615,-1.51905 -1.335064,-1.98595 -0.03367,-0.0583 -0.07569,-0.10984 -0.09843,-0.12059 -0.02181,-0.0106 -0.153174,-0.0698 -0.291905,-0.13208 -0.701834,-0.31525 -1.470313,-0.77999 -1.923555,-1.16327 -0.0958,-0.081 -0.07494,-0.0839 -0.369524,0.0505 -0.840919,0.38348 -1.719598,0.633 -2.591179,0.73583 -0.288994,0.0341 -1.088211,0.0389 -1.345273,0.008 -0.527444,-0.0633 -1.066357,-0.18783 -1.330217,-0.30747 -0.45904,-0.20814 -0.895331,-0.692137 -1.20669,-1.338637 -0.515196,-1.06974 -0.685461,-2.51625 -0.45795,-3.89058 0.1833,-1.10727 0.599103,-2.1296 1.222628,-3.00606 0.147349,-0.20713 0.286964,-0.38093 0.526327,-0.65523 0.629544,-0.72142 0.912555,-1.30993 1.032874,-2.14785 0.02038,-0.1419 0.02761,-0.38216 0.03751,-1.2459 0.009,-0.78528 0.0186,-1.13082 0.03608,-1.29822 0.124214,-1.18999 0.501316,-2.16073 1.295078,-3.3338 0.351131,-0.51892 0.613396,-0.83454 1.048047,-1.26125 0.158473,-0.15558 0.367244,-0.34883 0.463936,-0.42945 0.840091,-0.70045 1.82999,-1.25351 2.866349,-1.60143 0.126119,-0.0423 0.315299,-0.11444 0.420397,-0.16023 1.000295,-0.43574 1.985105,-0.57904 2.904568,-0.42266 0.448637,0.0763 0.996795,0.24837 1.459925,0.45826 0.05886,0.0267 0.22396,0.0864 0.366893,0.13277 1.060467,0.34388 2.033797,0.88116 2.904567,1.60331 0.252273,0.20923 0.764803,0.72116 0.97094,0.96982 0.537873,0.64884 1.041844,1.46128 1.341835,2.16314 0.405104,0.94779 0.543276,1.80098 0.514939,3.17974 -0.02423,1.17942 0.07357,1.7745 0.396999,2.41537 0.189145,0.37479 0.365221,0.62517 0.741795,1.05482 0.4547,0.51879 0.759824,0.97675 1.049094,1.57458 0.382387,0.79028 0.613774,1.62231 0.703594,2.53003 0.03538,0.35755 0.03552,1.04327 2.91e-4,1.38349 -0.128188,1.23738 -0.531153,2.2625 -1.1318,2.879227 -0.365375,0.37516 -0.64957,0.51775 -1.297921,0.65123 -1.441349,0.29672 -2.975627,0.0716 -4.628178,-0.67925 l -0.191892,-0.0872 -0.0527,0.0453 c -0.114392,0.0983 -0.431512,0.32921 -0.656547,0.47814 -0.510403,0.33779 -1.171926,0.68097 -1.638803,0.85018 -0.05066,0.0183 -0.07248,0.047 -0.208517,0.274 -0.19603,0.32707 -0.544994,0.86328 -0.844832,1.29815 -0.304764,0.44202 -0.523554,0.74877 -0.534172,0.74894 -0.0046,0 -0.08088,-0.0979 -0.169494,-0.21771 z m -0.899354,-3.835827 c 0.29226,-0.25216 0.689768,-0.78675 0.962563,-1.2945 0.05466,-0.10172 0.102811,-0.18503 0.107011,-0.18513 0.0043,-1.7e-4 0.04547,0.0728 0.09172,0.16196 0.227221,0.43819 0.562497,0.90621 0.86742,1.21087 0.185119,0.18496 0.20806,0.20308 0.24548,0.19389 0.06158,-0.0151 0.598662,-0.27926 0.790841,-0.38894 0.51325,-0.29292 1.090712,-0.73512 1.496728,-1.14615 0.14258,-0.14434 0.144254,-0.12504 -0.02823,-0.32522 -0.348527,-0.40452 -0.901704,-0.75208 -1.54543,-0.97099 -0.285703,-0.0972 -0.810111,-0.21894 -0.942838,-0.21894 h -0.04319 v -0.65393 -0.65393 l 0.06497,0.005 c 0.754896,0.0524 1.408771,0.3055 1.901576,0.73594 0.407496,0.35594 0.736676,0.88173 0.931865,1.48846 0.02366,0.0736 0.04677,0.13364 0.05135,0.13348 0.01578,-6.6e-4 0.268504,-0.35143 0.37124,-0.51546 0.447537,-0.71457 0.671988,-1.38974 0.753481,-2.26652 0.033,-0.35524 0.259262,-0.64875 0.572357,-0.74253 0.0522,-0.0157 0.095,-0.0379 0.09901,-0.0514 0.01528,-0.0516 0.163182,-0.97751 0.213845,-1.3386 0.0866,-0.61717 0.200135,-1.62177 0.231826,-2.0513 l 0.01032,-0.1404 -0.07722,-0.0866 c -0.09785,-0.10979 -0.166956,-0.24978 -0.197685,-0.40047 -0.02215,-0.10872 -0.02196,-0.1391 0.0027,-0.3859 0.05426,-0.54188 0.04751,-1.32151 -0.01589,-1.83248 -0.203725,-1.64228 -0.866876,-3.10283 -1.984678,-4.37116 -0.963979,-1.09379 -2.396064,-1.96625 -3.507308,-2.13673 -0.567766,-0.0871 -1.247399,0.0572 -2.01305,0.42753 -1.469343,0.71063 -2.693569,1.93868 -3.453113,3.4639 -0.426055,0.85555 -0.67047,1.70459 -0.774531,2.69054 -0.04562,0.4323 -0.04165,1.17674 0.0089,1.66467 0.0314,0.30312 0.02468,0.47714 -0.02363,0.61298 l -0.03529,0.0992 0.03433,0.29825 c 0.161199,1.40051 0.297059,2.36547 0.501515,3.56206 0.0069,0.0406 0.03393,0.0765 0.111982,0.14894 0.193257,0.17935 0.243212,0.29544 0.290342,0.67476 0.10213,0.82195 0.342536,1.51707 0.749251,2.1664 0.14468,0.23098 0.353273,0.51487 0.366718,0.49908 0.0053,-0.006 0.03895,-0.0973 0.07475,-0.20243 0.07497,-0.22008 0.235138,-0.56189 0.349601,-0.74606 0.52709,-0.84806 1.315898,-1.29805 2.452726,-1.39922 l 0.07262,-0.007 v 0.65191 0.65191 l -0.17198,0.0268 c -0.422504,0.0658 -0.944641,0.23275 -1.33015,0.4253 -0.434739,0.21713 -0.784853,0.48436 -1.04727,0.79933 l -0.113286,0.13598 0.165695,0.16687 c 0.396637,0.39947 0.889917,0.78096 1.419631,1.0979 0.18505,0.11072 0.779131,0.41207 0.812786,0.41228 0.01,0 0.06741,-0.0423 0.127519,-0.0942 z m -2.3624,-6.13727 c -0.518561,-0.0793 -0.962378,-0.44562 -1.124587,-0.92834 -0.215744,-0.64202 0.05583,-1.34454 0.644113,-1.66625 0.217166,-0.11877 0.409984,-0.16731 0.66392,-0.16715 0.295628,1.7e-4 0.52336,0.0671 0.76253,0.22421 0.701617,0.46076 0.837087,1.42875 0.289634,2.06955 -0.163583,0.19148 -0.448375,0.36767 -0.700559,0.4334 -0.119595,0.0312 -0.427254,0.0511 -0.535051,0.0346 z m 6.453636,-0.005 c -0.375286,-0.0682 -0.719221,-0.2864 -0.92663,-0.58786 -0.07356,-0.10692 -0.165031,-0.30891 -0.201203,-0.44432 -0.04742,-0.17754 -0.04814,-0.4839 -0.0017,-0.6696 0.169562,-0.67623 0.812023,-1.1269 1.497689,-1.05059 0.579625,0.0645 1.057206,0.48277 1.199585,1.05059 0.04656,0.1857 0.04584,0.49206 -0.0017,0.6696 -0.105822,0.39616 -0.367127,0.71783 -0.731161,0.90005 -0.185956,0.0931 -0.350959,0.13362 -0.570034,0.14001 -0.105098,0.003 -0.224387,-3.4e-4 -0.265084,-0.008 z m -5.245948,-3.64103 c -0.453498,-0.023 -1.025771,-0.16001 -1.270196,-0.30404 -0.203903,-0.12016 -0.465305,-0.43052 -0.617462,-0.7331 -0.235684,-0.4687 -0.410521,-1.15025 -0.475339,-1.85298 -0.02151,-0.23328 -0.01142,-0.73059 0.01633,-0.80427 l 0.01913,-0.0508 0.12424,0.24985 c 0.212736,0.42781 0.446106,0.7827 0.792155,1.20463 0.187815,0.229 0.803496,0.84976 1.059537,1.06828 0.415147,0.35431 0.94387,0.74183 1.393611,1.02142 l 0.216496,0.13459 -0.109485,0.009 c -0.06022,0.005 -0.219555,0.0203 -0.354083,0.0338 -0.296795,0.0299 -0.531096,0.0368 -0.794933,0.0234 z m 3.959381,0.002 c -0.134526,-0.006 -0.334024,-0.0221 -0.443327,-0.0355 -0.109304,-0.0134 -0.229674,-0.0262 -0.26749,-0.0284 l -0.06875,-0.004 0.11462,-0.0672 c 0.340899,-0.19996 0.941826,-0.62576 1.307018,-0.9261 0.432817,-0.35597 0.908721,-0.82046 1.213918,-1.18483 0.355861,-0.42485 0.600693,-0.79114 0.815323,-1.21981 0.09546,-0.19065 0.143735,-0.27251 0.152007,-0.25773 0.04579,0.0818 0.05532,0.50317 0.01979,0.8748 -0.08082,0.84507 -0.308965,1.59817 -0.631734,2.08533 -0.106311,0.16046 -0.314617,0.37216 -0.4417,0.4489 -0.23994,0.14489 -0.799547,0.28562 -1.224632,0.30796 -0.08957,0.005 -0.193798,0.0106 -0.231636,0.0132 -0.03784,0.003 -0.178861,-3.3e-4 -0.313385,-0.007 z"
       id="path85" />
  </g>
</svg>
