<?xml version="1.0" encoding="UTF-8" standalone="no"?>
<!-- Created with Inkscape (http://www.inkscape.org/) -->

<svg
   version="1.1"
   id="svg262"
   width="24"
   height="24"
   viewBox="0 0 24 24"
   sodipodi:docname="vulcan.svg"
   inkscape:version="1.1 (c4e8f9ed74, 2021-05-24)"
   xmlns:inkscape="http://www.inkscape.org/namespaces/inkscape"
   xmlns:sodipodi="http://sodipodi.sourceforge.net/DTD/sodipodi-0.dtd"
   xmlns="http://www.w3.org/2000/svg"
   xmlns:svg="http://www.w3.org/2000/svg">
  <defs
     id="defs266" />
  <sodipodi:namedview
     id="namedview264"
     pagecolor="#505050"
     bordercolor="#ffffff"
     borderopacity="1"
     inkscape:pageshadow="0"
     inkscape:pageopacity="0"
     inkscape:pagecheckerboard="1"
     showgrid="false"
     width="24px"
     fit-margin-top="0"
     fit-margin-left="0"
     fit-margin-right="0"
     fit-margin-bottom="0"
     inkscape:zoom="23.893333"
     inkscape:cx="1.9042969"
     inkscape:cy="13.309152"
     inkscape:window-width="2529"
     inkscape:window-height="1044"
     inkscape:window-x="31"
     inkscape:window-y="0"
     inkscape:window-maximized="1"
     inkscape:current-layer="g268" />
  <g
     inkscape:groupmode="layer"
     inkscape:label="Image"
     id="g268"
     transform="translate(-204.34326,-46.483952)">
    <path
       style="fill:#000000;stroke-width:0.0491649"
       d="m 215.38351,70.328903 c -2.30926,-0.59884 -4.54233,-2.169535 -5.66649,-3.985698 -0.39657,-0.640679 -0.84785,-1.791051 -0.84785,-2.161287 0,-0.08211 -0.053,-0.133446 -0.20895,-0.20256 -0.30098,-0.133409 -1.09442,-0.942675 -1.44793,-1.47679 -0.76272,-1.152387 -1.24043,-2.571913 -1.39892,-4.156841 -0.0938,-0.938139 0.0494,-1.512004 0.47523,-1.904524 0.30147,-0.27788 0.67509,-0.382699 1.1041,-0.309751 0.17493,0.02974 0.32168,0.04966 0.32613,0.04437 0.005,-0.0049 -0.0127,-0.142467 -0.038,-0.304711 -0.0635,-0.40727 -0.0601,-1.921695 0.006,-2.458244 0.42011,-3.427431 2.16027,-5.582426 5.21731,-6.461039 2.16723,-0.62287 5.55127,-0.567498 7.69118,0.125838 0.51727,0.16759 1.28472,0.539363 1.75148,0.848462 0.4964,0.328717 1.22776,1.103531 1.54105,1.632631 0.60485,1.021498 0.94538,2.150496 1.11059,3.682031 0.0693,0.642413 0.0753,2.40206 0.01,2.717441 l -0.049,0.234602 0.17822,-0.03798 c 0.31856,-0.06785 0.7555,-0.03441 0.96561,0.07375 0.6269,0.322902 0.88176,1.026993 0.77301,2.135562 -0.2367,2.412791 -1.28469,4.582031 -2.65711,5.499952 l -0.37147,0.248454 -0.11063,0.437777 c -0.21674,0.857448 -0.69135,1.788667 -1.2896,2.530295 -1.20034,1.488024 -3.21201,2.75429 -5.16402,3.250572 -0.62135,0.157967 -1.28376,0.157143 -1.89884,-0.0025 z m 1.4012,-1.727063 c 0.90583,-0.213277 2.06536,-0.772221 2.95766,-1.42572 1.38607,-1.015107 2.21237,-2.315395 2.37481,-3.737071 0.0599,-0.523483 0.33651,-0.858481 0.7695,-0.931626 0.60737,-0.102631 1.47681,-1.327869 1.85796,-2.618312 0.13138,-0.444807 0.34894,-1.44042 0.34894,-1.596838 0,-0.0311 -0.083,0.02286 -0.18437,0.119962 -0.28443,0.272509 -0.47444,0.349648 -0.79468,0.322632 l -0.27466,-0.02323 -0.2855,0.263585 c -0.15702,0.144963 -0.30382,0.263573 -0.32623,0.263573 -0.0224,0 -0.0516,-1.05643 -0.065,-2.347623 -0.0301,-2.910056 -0.11689,-3.733998 -0.46745,-4.43493 -0.25984,-0.519562 -0.44868,-0.551863 -1.62371,-0.277683 -1.4519,0.338795 -2.77829,0.470828 -4.72978,0.470828 -1.92912,0 -3.2656,-0.130005 -4.72814,-0.459913 -1.1104,-0.250483 -1.23834,-0.250655 -1.51355,-0.0025 -0.27038,0.244263 -0.4268,0.675967 -0.54378,1.500745 -0.0991,0.698104 -0.14472,2.47201 -0.10312,4.001898 0.0227,0.838261 0.0328,1.533907 0.0223,1.545879 -0.0111,0.01229 -0.14587,-0.103246 -0.30064,-0.256125 l -0.28142,-0.277892 -0.27077,0.02827 c -0.32819,0.03429 -0.54311,-0.04437 -0.83001,-0.303568 -0.11111,-0.10042 -0.20209,-0.170062 -0.20209,-0.154771 0,0.01536 0.0441,0.255706 0.098,0.53425 0.1164,0.601667 0.34236,1.408782 0.48388,1.72871 0.22815,0.515764 0.66365,1.177007 1.00623,1.527787 0.30772,0.315085 0.39239,0.373259 0.64888,0.445814 0.43974,0.124412 0.63542,0.349563 0.71277,0.82012 0.19867,1.208546 0.51134,1.916287 1.21658,2.753872 0.93252,1.107512 2.5692,2.113143 4.06876,2.500009 0.42962,0.110867 0.55902,0.113448 0.95872,0.0193 z m -4.30192,-6.822524 c -0.65043,-0.25503 -0.98126,-0.730283 -0.98126,-1.409643 0,-0.602392 0.2905,-1.064456 0.83492,-1.328005 0.35641,-0.172531 0.89402,-0.164456 1.26915,0.01905 0.93268,0.456324 1.09693,1.714072 0.31558,2.416564 -0.12892,0.115906 -0.33779,0.245996 -0.46413,0.28904 -0.26534,0.09046 -0.75994,0.09698 -0.97426,0.01303 z m 6.72451,-0.01364 c -0.11431,-0.04179 -0.31365,-0.171217 -0.44309,-0.28759 -0.78227,-0.703328 -0.6186,-1.960794 0.31466,-2.4174 0.37513,-0.183533 0.91274,-0.191608 1.26915,-0.01905 0.54481,0.263745 0.83524,0.725968 0.83441,1.328004 -8.7e-4,0.610198 -0.27158,1.057229 -0.80868,1.335245 -0.27972,0.144802 -0.8549,0.174793 -1.16645,0.06084 z m -5.32331,-3.875237 c -1.33825,-0.297042 -2.38126,-1.060855 -2.92486,-2.141917 -0.25947,-0.515998 -0.52949,-1.475352 -0.41526,-1.475352 0.0253,0 0.0461,0.02077 0.0461,0.04609 0,0.108532 0.61229,0.845833 0.89571,1.078579 0.88716,0.728513 2.23268,1.095984 3.44915,0.941999 0.23994,-0.03036 0.44405,-0.04744 0.45357,-0.03786 0.01,0.0098 -0.19785,0.386227 -0.46083,0.837131 -0.5375,0.921571 -0.476,0.877298 -1.04355,0.751325 z m 3.87295,-0.751325 c -0.26299,-0.450904 -0.47036,-0.827617 -0.46084,-0.837131 0.01,-0.0098 0.21362,0.0074 0.45357,0.03786 1.21648,0.153985 2.562,-0.213486 3.44915,-0.941999 0.28342,-0.232746 0.8957,-0.970023 0.8957,-1.078579 0,-0.02532 0.0208,-0.04609 0.0461,-0.04609 0.0638,0 0.0125,0.295727 -0.13225,0.762056 -0.46985,1.513467 -1.59179,2.506855 -3.22337,2.854021 -0.55842,0.118856 -0.49369,0.166042 -1.02804,-0.750133 z"
       id="path290" />
  </g>
</svg>
