<?xml version="1.0" encoding="UTF-8" standalone="no"?>
<!-- Created with Inkscape (http://www.inkscape.org/) -->

<svg
   width="24mm"
   height="24mm"
   viewBox="0 0 24 24"
   version="1.1"
   id="svg596"
   inkscape:version="1.1 (c4e8f9ed74, 2021-05-24)"
   sodipodi:docname="klingon-logo.svg"
   xmlns:inkscape="http://www.inkscape.org/namespaces/inkscape"
   xmlns:sodipodi="http://sodipodi.sourceforge.net/DTD/sodipodi-0.dtd"
   xmlns="http://www.w3.org/2000/svg"
   xmlns:svg="http://www.w3.org/2000/svg">
  <sodipodi:namedview
     id="namedview598"
     pagecolor="#505050"
     bordercolor="#ffffff"
     borderopacity="1"
     inkscape:pageshadow="0"
     inkscape:pageopacity="0"
     inkscape:pagecheckerboard="1"
     inkscape:document-units="mm"
     showgrid="false"
     width="24mm"
     inkscape:zoom="6.1148148"
     inkscape:cx="8.1768625"
     inkscape:cy="44.318595"
     inkscape:window-width="2529"
     inkscape:window-height="1044"
     inkscape:window-x="31"
     inkscape:window-y="0"
     inkscape:window-maximized="1"
     inkscape:current-layer="layer1" />
  <defs
     id="defs593" />
  <g
     inkscape:label="Layer 1"
     inkscape:groupmode="layer"
     id="layer1">
    <path
       style="fill:#000000;stroke-width:0.0468881"
       d="M 9.9691082,22.797546 C 8.9655438,22.620882 7.8932248,22.16745 7.0464488,21.561697 6.4332228,21.123017 6.4360958,21.152673 6.9902588,20.9817 l 0.473875,-0.146202 0.283594,0.192585 c 0.563332,0.382551 1.277136,0.689154 2.0687564,0.888601 0.5585988,0.140737 1.7766158,0.173271 2.4267098,0.06482 0.568288,-0.09481 1.101528,-0.25448 1.572931,-0.471003 l 0.337866,-0.155188 0.562137,0.102804 c 0.309175,0.05654 0.575096,0.115763 0.590936,0.131604 0.04126,0.04126 -0.586046,0.42293 -1.060722,0.64537 -0.566352,0.265402 -1.19394,0.461823 -1.816002,0.568367 -0.706374,0.120986 -1.75469,0.118469 -2.4612328,-0.0059 z M 2.4081948,22.214724 c 0.14672,-2.363408 0.711608,-3.478397 2.326034,-4.591182 0.915716,-0.631182 1.395666,-1.002607 1.794208,-1.388508 0.210816,-0.20413 0.396792,-0.355883 0.413278,-0.33723 0.01649,0.01865 0.719496,0.893726 1.562243,1.944605 l 1.5322662,1.91069 -0.6937192,2.81e-4 c -0.78307,3.29e-4 -1.386551,0.07818 -2.147037,0.277054 -1.657007,0.43331 -3.439279,1.381219 -4.496272,2.391362 l -0.32302,0.308702 0.03202,-0.515769 z M 16.268102,20.800551 c -1.078606,-0.104945 -1.687565,-0.214074 -2.484794,-0.445288 -0.601313,-0.174393 -1.313142,-0.454846 -1.313142,-0.517362 0,-0.0459 2.451264,-3.852576 2.553756,-3.965844 0.04232,-0.04676 0.101724,0.0102 0.274803,0.263513 0.963474,1.410093 3.273948,2.669177 5.815813,3.169304 l 0.509286,0.100206 -0.280971,0.260129 c -0.771121,0.713923 -2.530766,1.182882 -4.347986,1.158773 -0.309461,-0.0041 -0.636506,-0.01465 -0.726765,-0.02343 z M 10.380947,17.797018 C 9.9440282,17.211153 9.2088628,16.246184 8.7472468,15.65264 c -0.461616,-0.593544 -0.840297,-1.100609 -0.841513,-1.126811 -0.0012,-0.0262 0.08466,-0.226988 0.190843,-0.44619 0.733113,-1.513468 1.5793664,-5.1383103 2.6379892,-11.2995786 0.156908,-0.9132106 0.290744,-1.6658408 0.297415,-1.6725115 0.0067,-0.00667 0.07115,0.350989 0.143287,0.7947991 0.473754,2.9146853 1.318032,7.0692737 1.883859,9.270229 0.396826,1.543577 0.80402,2.746187 1.043904,3.083073 l 0.09567,0.134354 -0.540851,0.770857 c -0.754843,1.075855 -1.971417,2.903771 -2.221217,3.337407 -0.11495,0.199544 -0.220764,0.363066 -0.235144,0.363382 -0.01438,3.29e-4 -0.383623,-0.478768 -0.82054,-1.064632 z m 7.527556,-0.533735 c -0.480293,-0.259492 -0.480545,-0.259853 -0.424232,-0.606936 0.0713,-0.439469 0.06045,-1.453813 -0.02093,-1.955557 -0.1393,-0.858899 -0.506587,-1.773755 -1.020878,-2.542848 -0.5286,-0.790488 -1.604386,-1.709834 -2.49577,-2.132832 L 13.608135,9.8644498 13.503823,9.4130366 c -0.05737,-0.2482772 -0.09362,-0.4621043 -0.08055,-0.475172 0.01307,-0.013068 0.220682,0.054749 0.461367,0.1507049 2.358267,0.9401875 4.055963,3.0927195 4.427444,5.6136165 0.05933,0.402647 0.07116,0.707881 0.05037,1.299865 -0.02279,0.648912 -0.108688,1.312129 -0.179064,1.382505 -0.0097,0.0097 -0.133429,-0.04484 -0.27489,-0.121273 z M 4.1521138,16.900343 c -0.01342,-0.02171 -0.04454,-0.29073 -0.06916,-0.597823 -0.209414,-2.611802 1.003518,-5.088918 3.206081,-6.5476303 0.400227,-0.2650626 1.22232,-0.692277 1.332155,-0.692277 0.06544,0 0.06634,-0.00821 -0.05646,0.5123613 l -0.104278,0.442029 -0.445043,0.267344 c -1.615642,0.970542 -2.690892,2.51453 -3.029339,4.349934 -0.04449,0.24125 -0.07768,0.696553 -0.08165,1.119747 l -0.0067,0.713183 -0.335403,0.236301 c -0.355865,0.250717 -0.372103,0.258509 -0.410222,0.196831 z"
       id="path7" />
  </g>
</svg>
