<?xml version="1.0" encoding="UTF-8" standalone="no"?>
<!-- Created with Inkscape (http://www.inkscape.org/) -->

<svg
   width="31.749998mm"
   height="45.15556mm"
   viewBox="0 0 31.749998 45.15556"
   version="1.1"
   id="svg10"
   inkscape:version="1.1 (c4e8f9ed74, 2021-05-24)"
   sodipodi:docname="me.svg"
   xmlns:inkscape="http://www.inkscape.org/namespaces/inkscape"
   xmlns:sodipodi="http://sodipodi.sourceforge.net/DTD/sodipodi-0.dtd"
   xmlns="http://www.w3.org/2000/svg"
   xmlns:svg="http://www.w3.org/2000/svg">
  <sodipodi:namedview
     id="namedview12"
     pagecolor="#505050"
     bordercolor="#ffffff"
     borderopacity="1"
     inkscape:pageshadow="0"
     inkscape:pageopacity="0"
     inkscape:pagecheckerboard="1"
     inkscape:document-units="mm"
     showgrid="false"
     fit-margin-top="0"
     fit-margin-left="0"
     fit-margin-right="0"
     fit-margin-bottom="0"
     inkscape:zoom="2.1619135"
     inkscape:cx="-232.2017"
     inkscape:cy="52.731064"
     inkscape:window-width="2529"
     inkscape:window-height="1044"
     inkscape:window-x="31"
     inkscape:window-y="0"
     inkscape:window-maximized="1"
     inkscape:current-layer="layer1" />
  <defs
     id="defs7" />
  <g
     inkscape:label="Layer 1"
     inkscape:groupmode="layer"
     id="layer1"
     transform="translate(-10.041099,-119.3045)">
    <g
       id="g310"
       transform="translate(-34.949078,30.359403)">
      <path
         style="fill:#dfc491;stroke-width:0.352778"
         d="m 59.101288,124.22287 h -7.055555 v -5.29167 -5.29166 h -1.763889 -1.763889 v -1.76389 -1.76389 h 1.763889 1.763889 v -3.52778 -3.52778 h 8.819444 8.819444 v 1.76389 1.76389 h -1.763889 -1.763889 v 1.76389 1.76389 h 3.527778 3.527778 v 1.76389 1.76389 H 71.44851 69.684621 v 1.76389 1.76388 h -3.527778 -3.527777 v 1.76389 1.76389 h 1.763889 1.763888 v 1.76389 1.76389 z m 1.763889,-14.11111 h 1.763889 v -1.76389 -1.76389 h -1.763889 -1.763889 v 1.76389 1.76389 z"
         id="path322" />
      <path
         style="fill:#92a1b0;stroke-width:0.352778"
         d="m 46.754066,134.10065 h -1.763889 v -4.93889 -4.93889 h 1.763889 1.763889 v 4.93889 4.93889 z m 28.222222,0 h -1.763889 v -4.93889 -4.93889 h 1.763889 1.763888 v 4.93889 4.93889 z"
         id="path320" />
      <path
         style="fill:#004b70;stroke-width:0.352778"
         d="m 55.57351,134.10065 h -7.055555 v -4.93889 -4.93889 h 12.347222 12.347222 v 4.93889 4.93889 H 71.44851 69.684621 v -1.41111 -1.41112 h -3.527778 -3.527777 v 1.41112 1.41111 z"
         id="path318" />
      <path
         style="fill:#122d3a;stroke-width:0.352778"
         d="m 66.156843,134.10065 h -3.527777 v -1.41111 -1.41112 h 3.527777 3.527778 v 1.41112 1.41111 z"
         id="path316" />
      <path
         style="fill:#17342c;stroke-width:0.352778"
         d="m 60.865177,110.11176 h -1.763889 v -1.76389 -1.76389 h 1.763889 1.763889 v 1.76389 1.76389 z m 7.055555,0 h -1.763889 v -1.76389 -1.76389 h 1.763889 1.763889 v 1.76389 1.76389 z"
         id="path314" />
      <path
         style="fill:#000000;stroke-width:0.352778"
         d="m 50.281844,120.69509 h -1.763889 v -3.52778 -3.52777 h 1.763889 1.763889 v 3.52777 3.52778 z m 14.111111,0 h -1.763889 v -1.76389 -1.76389 h 1.763889 1.763888 v 1.76389 1.76389 z M 50.281844,110.11176 h -1.763889 v -5.29167 -5.291664 h 1.763889 1.763889 v -1.763889 -1.763889 h 1.763888 1.763889 V 94.236759 92.47287 h 1.763889 1.763889 v -1.763889 -1.763889 h 5.291667 5.291666 v 1.763889 1.763889 h 1.763889 1.763889 v 5.291667 5.291663 H 62.629066 52.045733 v 3.52778 3.52778 z"
         id="path312" />
    </g>
  </g>
</svg>
