<?xml version="1.0" encoding="UTF-8" standalone="no"?>
<!-- Created with Inkscape (http://www.inkscape.org/) -->

<svg
   width="24mm"
   height="24mm"
   viewBox="0 0 24 24"
   version="1.1"
   id="svg596"
   inkscape:version="1.1 (c4e8f9ed74, 2021-05-24)"
   sodipodi:docname="vulcan-logo.svg"
   xmlns:inkscape="http://www.inkscape.org/namespaces/inkscape"
   xmlns:sodipodi="http://sodipodi.sourceforge.net/DTD/sodipodi-0.dtd"
   xmlns="http://www.w3.org/2000/svg"
   xmlns:svg="http://www.w3.org/2000/svg">
  <sodipodi:namedview
     id="namedview598"
     pagecolor="#505050"
     bordercolor="#ffffff"
     borderopacity="1"
     inkscape:pageshadow="0"
     inkscape:pageopacity="0"
     inkscape:pagecheckerboard="1"
     inkscape:document-units="mm"
     showgrid="false"
     width="24mm"
     inkscape:zoom="6.1148148"
     inkscape:cx="35.242277"
     inkscape:cy="53.640218"
     inkscape:window-width="2529"
     inkscape:window-height="1044"
     inkscape:window-x="31"
     inkscape:window-y="0"
     inkscape:window-maximized="1"
     inkscape:current-layer="layer1" />
  <defs
     id="defs593" />
  <g
     inkscape:label="Layer 1"
     inkscape:groupmode="layer"
     id="layer1">
    <path
       style="fill:#000000;stroke-width:0.0506421"
       d="M 4.0817314,23.787239 C 3.9794051,23.57586 3.9787623,23.554032 4.0508212,22.736415 4.1485098,21.627986 4.2894741,20.591931 4.5094676,19.365494 4.6090124,18.810549 4.7250853,18.158809 4.7674068,17.917186 L 4.8443589,17.477869 4.6489472,17.208196 C 3.9436311,16.234834 3.4148965,15.016203 3.1678753,13.794617 2.6251351,11.110614 3.3352228,8.353564 5.1167584,6.227703 6.1937052,4.9426096 7.7700275,3.8912702 9.2910198,3.4436481 9.5829095,3.3577465 9.8382815,3.2709091 9.8585129,3.2506767 9.8787513,3.2304438 10.101826,2.8315716 10.354252,2.3642926 10.957026,1.248456 11.586698,0.19810337 11.719257,0.08734033 c 0.166142,-0.13882415 0.448688,-0.11485588 0.607718,0.05155313 0.162799,0.17035514 0.642642,0.99473744 1.285861,2.20914154 l 0.47988,0.9060161 0.57342,0.1736295 c 2.304213,0.6977081 4.291293,2.3869674 5.393871,4.5854443 1.44631,2.8838571 1.230507,6.2862721 -0.570255,8.9908551 l -0.380768,0.57188 0.307907,1.52977 c 0.169348,0.841373 0.375235,1.962759 0.457527,2.49197 0.144169,0.92714 0.146467,0.96866 0.06307,1.139449 -0.0476,0.09748 -0.151155,0.207907 -0.230119,0.245377 -0.172828,0.08202 -0.444435,0.04174 -0.551525,-0.08178 -0.04179,-0.04819 -0.274791,-0.463651 -0.517783,-0.923229 -0.496422,-0.938891 -1.273985,-2.321579 -1.392886,-2.476872 -0.07703,-0.10061 -0.08388,-0.09855 -0.432763,0.12995 -0.905819,0.593267 -2.176633,1.080474 -3.367705,1.291118 -0.81088,0.143406 -2.078111,0.143181 -2.886603,-5.17e-4 C 9.85696,20.796476 8.9274806,20.520226 8.3989488,20.279365 8.1038829,20.1449 7.995627,20.116446 7.9435443,20.159667 7.7217497,20.34374 4.9134954,23.771699 4.8509334,23.934731 c -0.018184,0.04738 -0.1242118,0.06835 -0.3454681,0.06835 H 4.1862317 Z M 13.14467,18.908935 c 0.830267,-0.13646 1.668025,-0.440391 2.370731,-0.860061 0.652389,-0.389621 0.632865,-0.291951 0.18203,-0.910581 -0.810803,-1.112578 -1.520651,-1.854643 -1.946459,-2.034805 -0.34584,-0.146327 -0.734105,0.02804 -1.595112,0.716338 -0.49239,0.393624 -2.7118805,2.569774 -2.7118805,2.658926 0,0.125184 1.2609445,0.448856 1.9700305,0.505685 0.5784,0.04636 1.137744,0.02196 1.73066,-0.0755 z m 5.378178,-4.388578 c 0.413896,-1.137382 0.55744,-2.418772 0.392306,-3.502046 C 18.760017,10.000612 18.306475,8.8553573 17.739972,8.0508209 17.414979,7.5892719 16.779438,6.916525 16.323908,6.5518582 15.965503,6.2649446 15.359744,5.865696 15.329189,5.8962509 c -0.01011,0.010098 0.133218,0.3793645 0.31849,0.8205936 0.869977,2.0719232 1.830178,4.8226275 2.458784,7.0437335 0.151722,0.536092 0.289854,0.97478 0.306961,0.974862 0.01711,1.01e-4 0.06635,-0.0967 0.10942,-0.215083 z M 5.7951966,13.672101 C 6.4511631,11.321794 7.5343703,8.2751429 8.37734,6.4095057 8.4643046,6.2170392 8.5283859,6.0383528 8.5197446,6.0124251 8.4737396,5.874415 7.232441,6.8745068 6.7125645,7.4684361 5.2783574,9.1069347 4.6956409,11.446697 5.1927692,13.570817 c 0.1051107,0.449116 0.3008422,1.081511 0.3262395,1.05406 0.0081,-0.0087 0.1323736,-0.437491 0.2761879,-0.952776 z"
       id="path869" />
  </g>
</svg>
